<svg width="482" height="232" viewBox="0 0 482 232" fill="none" xmlns="http://www.w3.org/2000/svg">
<path d="M10.3975 97V44.8281H0.738281V30.4316H10.3975V25.1406C10.3975 17.5527 12.6328 11.667 17.1035 7.4834C21.5742 3.2998 27.8496 1.20801 35.9297 1.20801C38.8828 1.20801 42.123 1.63867 45.6504 2.5L45.7119 17.7578C44.4404 17.3887 42.7383 17.2041 40.6055 17.2041C34.3301 17.2041 31.1924 19.9111 31.1924 25.3252V30.4316H44.1738V44.8281H31.1924V97H10.3975ZM93.0062 89.8018C88.6175 95.4209 82.6908 98.2305 75.2259 98.2305C67.9252 98.2305 62.388 96.1182 58.6146 91.8936C54.8822 87.6279 53.016 81.5166 53.016 73.5596V30.4316H73.7494V73.6826C73.7494 79.3838 76.5179 82.2344 82.055 82.2344C86.8129 82.2344 90.1966 80.5322 92.2064 77.1279V30.4316H113.063V97H93.6214L93.0062 89.8018ZM145.407 30.4316L146.084 38.2451C150.677 32.2158 157.014 29.2012 165.094 29.2012C172.026 29.2012 177.194 31.2725 180.598 35.415C184.044 39.5576 185.828 45.792 185.951 54.1182V97H165.156V54.9795C165.156 51.6162 164.479 49.1553 163.126 47.5967C161.772 45.9971 159.311 45.1973 155.743 45.1973C151.682 45.1973 148.668 46.7969 146.699 49.9961V97H125.966V30.4316H145.407ZM226.108 72.2061L220.264 78.0508V97H199.53V2.43848H220.264V52.6416L222.356 49.873L237.982 30.4316H262.838L239.521 57.8096L264.376 97H240.628L226.108 72.2061ZM63.3076 162.684L70.0137 123.432H89.8857L74.1973 190H56.6631L45.6504 150.502L34.5762 190H17.042L1.35352 123.432H21.2256L27.8086 163.606L38.3906 123.432H52.8486L63.3076 162.684ZM142.419 190C141.681 188.646 141.025 186.657 140.451 184.032C136.636 188.831 131.304 191.23 124.455 191.23C118.179 191.23 112.847 189.344 108.458 185.57C104.07 181.756 101.875 176.978 101.875 171.235C101.875 164.017 104.541 158.562 109.873 154.87C115.206 151.179 122.957 149.333 133.129 149.333H139.528V145.826C139.528 139.715 136.882 136.659 131.591 136.659C126.669 136.659 124.208 139.079 124.208 143.919H103.475C103.475 137.479 106.203 132.25 111.658 128.23C117.154 124.211 124.147 122.201 132.637 122.201C141.127 122.201 147.833 124.272 152.755 128.415C157.677 132.558 160.2 138.238 160.323 145.457V174.927C160.405 181.038 161.348 185.714 163.153 188.954V190H142.419ZM129.438 176.465C132.022 176.465 134.155 175.911 135.836 174.804C137.559 173.696 138.789 172.445 139.528 171.051V160.407H133.498C126.28 160.407 122.67 163.647 122.67 170.128C122.67 172.015 123.306 173.553 124.578 174.742C125.849 175.891 127.469 176.465 129.438 176.465ZM203.566 106.882V123.432H214.517V137.828H203.566V168.282C203.566 170.784 204.017 172.527 204.92 173.512C205.822 174.496 207.606 174.988 210.272 174.988C212.323 174.988 214.046 174.865 215.44 174.619V189.446C211.708 190.636 207.811 191.23 203.751 191.23C196.614 191.23 191.344 189.549 187.939 186.186C184.535 182.822 182.833 177.716 182.833 170.866V137.828H174.343V123.432H182.833V106.882H203.566ZM262.498 191.23C252.285 191.23 244.021 188.195 237.704 182.125C231.388 176.014 228.23 168.077 228.23 158.315V156.593C228.23 149.784 229.481 143.775 231.983 138.566C234.526 133.357 238.217 129.338 243.057 126.508C247.897 123.637 253.639 122.201 260.284 122.201C269.635 122.201 277.018 125.113 282.432 130.938C287.846 136.721 290.553 144.801 290.553 155.178V163.237H249.332C250.071 166.97 251.691 169.902 254.193 172.035C256.695 174.168 259.935 175.234 263.913 175.234C270.476 175.234 275.603 172.938 279.294 168.344L288.769 179.541C286.185 183.109 282.514 185.96 277.756 188.093C273.039 190.185 267.953 191.23 262.498 191.23ZM260.16 138.197C254.09 138.197 250.481 142.217 249.332 150.256H270.25V148.656C270.332 145.334 269.492 142.771 267.728 140.966C265.964 139.12 263.442 138.197 260.16 138.197ZM346.778 142.196L339.949 141.704C333.427 141.704 329.244 143.755 327.398 147.856V190H306.665V123.432H326.106L326.783 131.983C330.269 125.462 335.13 122.201 341.364 122.201C343.579 122.201 345.507 122.447 347.147 122.939L346.778 142.196Z" fill="#0069A7"/>
<path d="M307.896 26.9456C309.931 47.4565 281.445 74 281.445 74C281.445 74 287.549 55.0978 280.224 43.8369C272.899 32.576 270.864 24.9347 270.05 16.4891C269.236 8.04358 278.431 0 288.77 0C299.108 0 305.861 6.43469 307.896 26.9456Z" fill="#00B2E4"/>
<path d="M411.5 48C411.5 62.9117 398.5 75.5 372.5 73C346.5 70.4999 282 95 282 95C282 95 318 33 360 21C402 8.99997 411.5 33.0883 411.5 48Z" fill="#00B2E4"/>
<path d="M454.23 167.292C440.256 179.32 412.5 178.5 389.5 141.5C366.5 104.5 288.5 95.0001 288.5 95.0001C288.5 95.0001 399.5 74.0001 435 95.0001C470.5 116 468.203 155.264 454.23 167.292Z" fill="#00B2E4"/>
</svg>
